<?xml version="1.0" encoding="UTF-8"?>
<svg id="Layer_2" data-name="Layer 2" xmlns="http://www.w3.org/2000/svg" viewBox="0 0 240 234">
  <defs>
    <style>
      .cls-1 {
        fill: #eb1000;
      }

      .cls-2 {
        fill: #fff;
      }
    </style>
  </defs>
  <g id="Surfaces">
    <g id="DC_EC_Logo_Surface" data-name="DC/EC Logo Surface">
      <g id="Outline_no_shadow" data-name="Outline no shadow">
        <rect class="cls-1" width="240" height="234" rx="42.5" ry="42.5"/>
      </g>
    </g>
  </g>
  <g id="Outlined_Mnemonics_Logos" data-name="Outlined Mnemonics &amp;amp; Logos">
    <g id="Firefly_Mnemonic_One_Sparkle" data-name="Firefly Mnemonic One Sparkle">
      <path class="cls-2" d="M165.86,68.02l9.81,2.2c3.85.87,6.53-3.75,3.85-6.65l-6.81-7.37c-.9-.97-1.26-2.32-.97-3.61l2.21-9.78c.87-3.84-3.76-6.51-6.67-3.84l-7.39,6.8c-.98.89-2.32,1.25-3.62.97l-9.81-2.2c-3.85-.87-6.53,3.75-3.85,6.65l6.81,7.37c.9.97,1.26,2.32.97,3.61l-2.21,9.78c-.87,3.84,3.76,6.51,6.67,3.84l7.39-6.8c.98-.89,2.32-1.25,3.62-.97Z"/>
      <g>
        <path class="cls-2" d="M92.01,164.01c0,.94-.44,1.38-1.38,1.38h-19.89c-.78,0-1.09-.55-1.09-1.4V61.2c0-.92.29-1.25,1.23-1.25h63.73c1.08,0,1.36.31,1.53,1.36l1.79,17.35c.16.96-.31,1.38-1.36,1.38h-44.56v24.47h40.14c.93,0,1.37.29,1.37,1.26v17.56c0,.95-.47,1.27-1.27,1.27h-40.23v39.41Z"/>
        <path class="cls-2" d="M149.83,86.72c0-.92.42-1.34,1.35-1.34h19.78c1.03,0,1.35.28,1.35,1.32v77.19c0,1.04-.29,1.48-1.46,1.48h-19.4c-1.08,0-1.62-.46-1.62-1.52v-77.15Z"/>
      </g>
    </g>
  </g>
</svg>