<svg height="20" viewBox="0 0 116 20" width="116" xmlns="http://www.w3.org/2000/svg"><g fill="#fff" fill-rule="evenodd"><path d="m67.0101 13.8594c-.482.9989-1.4363 1.4977-2.8637 1.4977-1.3115 0-2.22-.4174-2.7266-1.2522-.5069-.8349-.7592-2.396-.7592-4.68633 0-1.68743.2523-3.01228.7592-3.97428.5066-.962 1.424-1.44429 2.752-1.44429 1.0948 0 1.9623.36514 2.6017 1.09486.6383.73.9586 2.28571.9586 4.66628 0 1.73346-.2409 3.09946-.722 4.09826zm-25.0804 0c-.482.9989-1.4363 1.4977-2.8637 1.4977-1.3114 0-2.22-.4174-2.7266-1.2522-.5068-.8349-.7588-2.396-.7588-4.68633 0-1.68743.252-3.01228.7588-3.97428.5066-.962 1.424-1.44429 2.7523-1.44429 1.0949 0 1.962.36514 2.6014 1.09486.6386.73.9589 2.28571.9589 4.66628 0 1.73346-.2411 3.09946-.7223 4.09826zm-16.4088-3.7554c-.8374-.47486-1.8885-.89057-3.164-1.24343 1.76-.63857 2.9229-1.236 3.5046-1.792-.2346.79915-.3526 1.65743-.3526 2.57543 0 .15543.0052.308.012.46zm-9.5534-2.71772-3.1051-.71657c-1.6529-.38171-2.4878-.90971-2.5055-1.586 0-.36257.2857-.66971.8583-.92085.5714-.25086 1.3637-.37715 2.3772-.37715 1.4262 0 2.5291.18086 3.3091.54257.7791.36143 1.1697.818 1.1697 1.37143 0 .75-.702 1.31143-2.1037 1.68657zm1.0572 7.92632c-.6977.2677-1.702.4017-3.0134.4017-1.6283 0-2.8829-.1932-3.7623-.5803-.88057-.3874-1.32029-.8671-1.32029-1.4397 0-.7746.79114-1.4286 2.37489-1.9643l3.8663.7891c1.9317.4575 2.8994 1.04 2.9017 1.7489 0 .4286-.3495.7766-1.0469 1.0446zm59.2287-1.9303c.2123 0 .4192.022.622.0566.5217-1.0855.7855-2.294.7855-3.62976 0-2.86143-1.1563-5.21085-3.4686-7.05028-2.3126-1.839146-5.6397-2.75886-9.9789-2.75886-4.1394 0-7.4454.862857-9.9163 2.58714-1.2162.84829-2.1314 1.84943-2.7491 3.00172-.5734-1.04886-1.3837-1.99286-2.4363-2.83-2.3123-1.839146-5.6394-2.75886-9.9788-2.75886-4.1395 0-7.4452.862857-9.9163 2.58714-1.024.71429-1.8326 1.53829-2.4326 2.46857.0003-.01142.0017-.02228.0017-.03342 0-1.51343-1.1663-2.72858-3.4966-3.646-2.3305-.917433-5.3428-1.37629-9.0348-1.37629-4.1272 0-7.35716.553714-9.68744 1.65857-2.33029 1.10486-3.49543 2.47886-3.49543 4.11943 0 1.86257 1.42857 3.23 4.28571 4.10029-3.57143.86281-5.35714 2.28031-5.35714 4.25111 0 1.5592 1.16171 2.8203 3.48771 3.7837 2.32486.9632 5.654 1.444 9.98769 1.444 4.3326 0 7.8237-.5088 10.4755-1.5268 1.788-.686 2.9702-1.5669 3.5528-2.6412.462.5346 1.0023 1.0329 1.6249 1.4929 2.4128 1.7834 5.6885 2.6751 9.828 2.6751 4.1048 0 7.402-.8614 9.8908-2.586 1.2226-.8468 2.1432-1.8385 2.7649-2.9734.6011 1.0849 1.4643 2.0474 2.5966 2.8843 2.4131 1.7834 5.6885 2.6751 9.8282 2.6751 3.4175 0 6.2729-.5991 8.5703-1.7942-.0223-.1629-.0377-.328-.0377-.4969 0-2.0311 1.6523-3.6837 3.6837-3.6837z"/><path d="m16.7093 5.44915c-.1377.48657-.5189.72942-1.1429.72942-.4431 0-.7757-.14228-.9971-.42685-.2217-.28486-.332-.86829-.332-1.75 0-.75057.1071-1.28972.322-1.61743.2149-.32743.554-.49143 1.0171-.49143.5035 0 .8523.15886 1.0469.47657.1949.31743.2926.83629.2926 1.55686 0 .52886-.0695 1.03686-.2066 1.52286zm-6.6884-.49201-3.24774-.20714c-.13457.76228-.56086 1.14285-1.27857 1.14285-.49 0-.83429-.15085-1.03172-.45199-.19828-.30143-.29685-.76629-.29685-1.39458 0-.72885.09857-1.24.29628-1.534.19743-.29371.51114-.44085.94086-.44085.67 0 1.07914.40514 1.22714 1.21428l3.3914-.21c-.09083.30457-.1414.62372-.1414.96114 0 .31943.05029.62515.1406.92029zm9.6951-3.81885c-1.0377-.758861-2.4111-1.13829-4.1189-1.13829-1.6951 0-3.072.384286-4.13 1.15343-.6351.46171-1.076.99457-1.33 1.59486-.19339-.74429-.67453-1.37058-1.44453-1.879433-.87657-.579428-2.01171-.868857-3.40457-.868857-1.57029 0-2.846.383429-3.828 1.14943-.915143.71457-1.398 1.61228-1.46 2.68886 1.17429.61657 1.97829 1.84628 1.97829 3.26228 0 .05029-.00543.09914-.00743.14886.90857.52171 2.02314.78628 3.35028.78628 1.41115 0 2.54286-.28457 3.39429-.854.74057-.49457 1.22-1.11657 1.43997-1.86514.2469.55372.6586 1.06286 1.246 1.52429 1.014.79685 2.3817 1.19485 4.1037 1.19485 1.7423 0 3.1389-.38571 4.1903-1.15685 1.0515-.77115 1.5777-1.73372 1.5777-2.888 0-1.14286-.5191-2.09372-1.5571-2.85257z" transform="translate(78 10)"/><path d="m15.4091 1.11371c-.2277-.327139-.5937-.594281-1.0988-.801996-.5054-.207428-1.0903-.311714-1.7549-.311714-1.3905 0-2.4214.396571-3.09254 1.18914-.60772-.792569-1.58372-1.18914-2.92829-1.18914-1.24886 0-2.20086.396571-2.856 1.18914v-1.046283h-3.67857v7.750003h3.92857v-4.85457c0-.62058.33257-.93115.998-.93115.64372 0 .96629.31057.96629.93115v4.85457h3.92857v-4.474c0-.82686.37397-1.24029 1.12227-1.24029.3143 0 .5329.06457.6569.194.1234.12943.1851.356.1851.68086v4.83943h3.9643v-5.26172c0-.68428-.1137-1.19028-.3409-1.51743" transform="translate(99.71 10)"/><path d="m5.60371 2.31229c-.124-.66972-.48257-1.25772-.98971-1.672861-.44571-.365143-1.00543-.5937147-1.61629-.63085757-.05685-.00342857-.11371-.00857143-.17142-.00857143-1.55858 0-2.82629 1.268-2.82629 2.82657 0 .01086.00142857.02143.00171429.03229.01742861 1.54343 1.27685571 2.794 2.82457571 2.794 1.55857 0 2.82657-1.268 2.82657-2.82629 0-.17571-.01857-.34743-.04915-.51428" transform="translate(73.43 14.286)"/></g></svg>