<svg width="170" height="40" viewBox="0 0 170 40" fill="none" xmlns="http://www.w3.org/2000/svg">
<path d="M39.169 33.9942C40.3495 34.5163 41.6774 34.7773 43.153 34.7773C44.6058 34.7773 45.8657 34.539 46.9326 34.0623C48.0222 33.5856 48.8621 32.9272 49.4523 32.0873C50.0426 31.2474 50.3377 30.294 50.3377 29.2271C50.315 28.0239 49.9858 27.0592 49.3502 26.3327C48.7146 25.6063 47.9541 25.0615 47.0688 24.6983C46.2062 24.3124 45.0939 23.9378 43.7318 23.5746C42.7103 23.2795 41.9385 23.0412 41.4164 22.8596C40.8943 22.6553 40.4516 22.3829 40.0884 22.0423C39.7252 21.7019 39.5436 21.2819 39.5436 20.7825C39.5436 20.1469 39.816 19.6361 40.3608 19.2502C40.9056 18.8643 41.6888 18.6713 42.7103 18.6713C43.7545 18.6713 44.5831 18.921 45.196 19.4205C45.3297 19.5294 45.4504 19.6464 45.5582 19.7715C46.2273 20.5485 47.0073 21.4294 48.0327 21.4294C49.1574 21.4294 50.0964 20.4632 49.7046 19.409C49.3567 18.4729 48.7846 17.6823 47.9882 17.0369C46.6942 15.9473 44.9803 15.4025 42.8465 15.4025C41.4164 15.4025 40.1452 15.6408 39.0328 16.1175C37.9432 16.5942 37.1033 17.2526 36.5131 18.0925C35.9229 18.9097 35.6278 19.8177 35.6278 20.8165C35.6278 22.0423 35.9456 23.0298 36.5812 23.779C37.2395 24.528 38.0113 25.0842 38.8966 25.4474C39.782 25.8106 40.9283 26.1852 42.3357 26.5711C43.7886 26.9797 44.8441 27.3543 45.5024 27.6948C46.1835 28.0353 46.524 28.5574 46.524 29.2611C46.524 29.9194 46.2175 30.4642 45.6046 30.8955C45.0144 31.3041 44.1745 31.5085 43.0849 31.5085C42.0406 31.5085 41.1667 31.2474 40.4629 30.7253C40.3318 30.6203 40.212 30.5108 40.1035 30.3966C39.3702 29.6242 38.5213 28.7163 37.4563 28.7163C36.2912 28.7163 35.3235 29.721 35.8045 30.7821C35.9663 31.1393 36.1685 31.4836 36.4109 31.8149C37.0919 32.7229 38.0113 33.4493 39.169 33.9942Z" fill="#222222" stroke="#222222" stroke-width="0.4"/>
<path fill-rule="evenodd" clip-rule="evenodd" d="M70.6638 24.6302C70.6638 24.7003 70.6634 24.7697 70.6625 24.8384C70.6496 25.821 69.8048 26.537 68.8222 26.537H56.1923C56.3058 28.0353 56.862 29.2384 57.8608 30.1464C58.8596 31.0545 60.0854 31.5085 61.5382 31.5085C62.9674 31.5085 64.1096 31.0992 64.9647 30.2806C65.7275 29.5505 66.6333 28.8865 67.6892 28.8865C68.9035 28.8865 69.7561 30.0893 69.0645 31.0873C68.5285 31.8608 67.8585 32.546 67.0545 33.1429C65.5789 34.2325 63.7402 34.7773 61.5382 34.7773C59.7449 34.7773 58.1332 34.3801 56.703 33.5856C55.2956 32.7683 54.1833 31.6333 53.3661 30.1805C52.5716 28.705 52.1743 27.0024 52.1743 25.0729C52.1743 23.1433 52.5602 21.4521 53.332 19.9993C54.1265 18.5238 55.2275 17.3888 56.6349 16.5942C58.0651 15.7997 59.6995 15.4025 61.5382 15.4025C63.3089 15.4025 64.8866 15.7884 66.2713 16.5602C67.656 17.332 68.7343 18.4216 69.5061 19.8291C70.278 21.2138 70.6638 22.8142 70.6638 24.6302ZM66.6118 23.4044C66.5891 21.9742 66.0783 20.8279 65.0795 19.9653C64.0807 19.1026 62.8435 18.6713 61.368 18.6713C60.0287 18.6713 58.8823 19.1026 57.9289 19.9653C56.9755 20.8052 56.408 21.9515 56.2263 23.4044H66.6118Z" fill="#222222" stroke="#222222" stroke-width="0.4"/>
<path fill-rule="evenodd" clip-rule="evenodd" d="M90.6155 24.6302C90.6155 24.7003 90.615 24.7697 90.6141 24.8384C90.6013 25.821 89.7564 26.537 88.7738 26.537H76.144C76.2575 28.0353 76.8136 29.2384 77.8124 30.1464C78.8113 31.0545 80.0371 31.5085 81.4899 31.5085C82.9191 31.5085 84.0612 31.0992 84.9164 30.2806C85.6791 29.5505 86.585 28.8865 87.6409 28.8865C88.8551 28.8865 89.7078 30.0893 89.0162 31.0873C88.4802 31.8608 87.8102 32.546 87.0061 33.1429C85.5306 34.2325 83.6919 34.7773 81.4899 34.7773C79.6966 34.7773 78.0848 34.3801 76.6547 33.5856C75.2473 32.7683 74.135 31.6333 73.3177 30.1805C72.5232 28.705 72.126 27.0024 72.126 25.0729C72.126 23.1433 72.5119 21.4521 73.2837 19.9993C74.0782 18.5238 75.1792 17.3888 76.5866 16.5942C78.0167 15.7997 79.6512 15.4025 81.4899 15.4025C83.2605 15.4025 84.8382 15.7884 86.223 16.5602C87.6077 17.332 88.686 18.4216 89.4578 19.8291C90.2296 21.2138 90.6155 22.8142 90.6155 24.6302ZM86.5635 23.4044C86.5408 21.9742 86.03 20.8279 85.0312 19.9653C84.0324 19.1026 82.7952 18.6713 81.3197 18.6713C79.9803 18.6713 78.834 19.1026 77.8805 19.9653C76.9271 20.8052 76.3596 21.9515 76.178 23.4044H86.5635Z" fill="#222222" stroke="#222222" stroke-width="0.4"/>
<path d="M99.8317 34.3749C98.3562 34.3749 97.0282 34.1138 95.8478 33.5917C94.69 33.0469 93.7706 32.3205 93.0896 31.4125C92.8472 31.0812 92.6451 30.7369 92.4832 30.3797C92.0023 29.3185 92.97 28.3138 94.1351 28.3138C95.2 28.3138 96.0489 29.2217 96.7822 29.994C96.8907 30.1083 97.0105 30.2179 97.1417 30.3228C97.8454 30.8449 98.7193 31.106 99.7636 31.106C100.853 31.106 101.693 30.9017 102.283 30.4931C102.896 30.0618 103.203 29.517 103.203 28.8587C103.203 28.1549 102.862 27.6328 102.181 27.2923C101.523 26.9518 100.467 26.5772 99.0145 26.1686C97.607 25.7827 96.4607 25.4082 95.5753 25.045C94.69 24.6817 93.9182 24.1256 93.2599 23.3765C92.6243 22.6274 92.3065 21.6399 92.3065 20.4141C92.3065 19.4152 92.6016 18.5072 93.1918 17.69C93.782 16.8501 94.6219 16.1918 95.7115 15.7151C96.8239 15.2384 98.0951 15 99.5252 15C101.659 15 103.373 15.5448 104.667 16.6344C105.463 17.2798 106.035 18.0705 106.383 19.0065C106.775 20.0608 105.836 21.027 104.711 21.027C103.686 21.027 102.906 20.146 102.237 19.3691C102.129 19.2439 102.008 19.1269 101.875 19.018C101.262 18.5186 100.433 18.2689 99.389 18.2689C98.3675 18.2689 97.5843 18.4618 97.0395 18.8477C96.4947 19.2336 96.2223 19.7444 96.2223 20.38C96.2223 20.8794 96.4039 21.2994 96.7671 21.6399C97.1303 21.9804 97.573 22.2528 98.0951 22.4571C98.6172 22.6387 99.389 22.8771 100.411 23.1722C101.773 23.5354 102.885 23.91 103.748 24.2958C104.633 24.659 105.393 25.2039 106.029 25.9303C106.665 26.6567 106.994 27.6215 107.016 28.8246C107.016 29.8915 106.721 30.8449 106.131 31.6848C105.541 32.5248 104.701 33.1831 103.611 33.6598C102.544 34.1365 101.285 34.3749 99.8317 34.3749Z" fill="#222222" stroke="#222222" stroke-width="0.4"/>
<path fill-rule="evenodd" clip-rule="evenodd" d="M113.833 33.5856C115.263 34.3801 116.864 34.7773 118.634 34.7773C120.428 34.7773 122.062 34.3801 123.538 33.5856C125.036 32.7683 126.216 31.622 127.079 30.1464C127.942 28.6709 128.373 26.9797 128.373 25.0729C128.373 23.166 127.953 21.4748 127.113 19.9993C126.273 18.5238 125.127 17.3888 123.674 16.5942C122.221 15.7997 120.598 15.4025 118.805 15.4025C117.011 15.4025 115.388 15.7997 113.935 16.5942C112.483 17.3888 111.336 18.5238 110.496 19.9993C109.656 21.4748 109.236 23.166 109.236 25.0729C109.236 27.0024 109.645 28.705 110.462 30.1805C111.279 31.6333 112.403 32.7683 113.833 33.5856ZM121.426 30.6912C120.564 31.168 119.633 31.4063 118.634 31.4063C117.068 31.4063 115.763 30.8615 114.719 29.7719C113.697 28.6596 113.186 27.0932 113.186 25.0729C113.186 23.7109 113.436 22.5645 113.935 21.6338C114.435 20.6803 115.104 19.9653 115.944 19.4885C116.807 19.0118 117.738 18.7735 118.736 18.7735C119.735 18.7735 120.666 19.0118 121.529 19.4885C122.391 19.9653 123.084 20.6803 123.606 21.6338C124.128 22.5645 124.389 23.7109 124.389 25.0729C124.389 26.4349 124.116 27.5926 123.572 28.546C123.027 29.4995 122.312 30.2145 121.426 30.6912Z" fill="#222222" stroke="#222222" stroke-width="0.4"/>
<path d="M139.011 17.2917C139.011 18.1661 138.303 18.875 137.428 18.875H135.538V32.5124C135.538 33.5937 134.662 34.4703 133.58 34.4703C132.499 34.4703 131.622 33.5937 131.622 32.5124V18.875H130.993C130.118 18.875 129.409 18.1661 129.409 17.2917C129.409 16.4172 130.118 15.7083 130.993 15.7083H131.622V14.3803C131.622 12.2238 132.19 10.6574 133.325 9.68133C134.212 8.91627 135.478 8.44421 137.124 8.26516C138.012 8.16856 138.739 8.90725 138.739 9.80052C138.739 10.6938 137.994 11.3547 137.139 11.6151C136.769 11.7279 136.474 11.8892 136.253 12.0989C135.777 12.5302 135.538 13.2907 135.538 14.3803V15.7083H137.428C138.303 15.7083 139.011 16.4172 139.011 17.2917Z" fill="#222222" stroke="#222222" stroke-width="0.4"/>
<path d="M146.981 29.2606V18.8751H149.96C150.835 18.8751 151.544 18.1662 151.544 17.2918C151.544 16.4173 150.835 15.7084 149.96 15.7084H146.981V13.0014C146.981 11.92 146.104 11.0435 145.023 11.0435C143.941 11.0435 143.065 11.92 143.065 13.0014V15.7084H142.435C141.56 15.7084 140.852 16.4173 140.852 17.2918C140.852 18.1662 141.56 18.8751 142.435 18.8751H143.065V29.2606C143.065 31.0994 143.53 32.4273 144.461 33.2445C145.392 34.0618 146.731 34.4704 148.479 34.4704H149.926C150.819 34.4704 151.544 33.7462 151.544 32.853C151.544 31.9597 150.819 31.2355 149.926 31.2355H149.16C148.365 31.2355 147.798 31.088 147.457 30.7929C147.14 30.4751 146.981 29.9643 146.981 29.2606Z" fill="#222222" stroke="#222222" stroke-width="0.4"/>
<path fill-rule="evenodd" clip-rule="evenodd" d="M28.8185 9.59594C30.3638 9.59594 31.6165 8.34325 31.6165 6.79797C31.6165 5.25269 30.3638 4 28.8185 4C27.2732 4 26.0205 5.25269 26.0205 6.79797C26.0205 8.34325 27.2732 9.59594 28.8185 9.59594ZM31.6165 15.3745C31.6165 13.8293 30.3638 12.5766 28.8185 12.5766C27.2732 12.5766 26.0205 13.8293 26.0205 15.3746V32.1784C26.0205 33.7236 27.2732 34.9763 28.8185 34.9763C30.3638 34.9763 31.6165 33.7236 31.6165 32.1784V15.3745ZM5.59595 23.7629C5.59595 20.6753 8.09898 18.1722 11.1866 18.1722C14.2743 18.1722 16.7773 20.6753 16.7773 23.7629V32.1516C16.7773 33.6969 18.03 34.9496 19.5753 34.9496C21.1206 34.9496 22.3733 33.6969 22.3733 32.1516V23.7629C22.3733 17.5847 17.3648 12.5763 11.1866 12.5763C5.00842 12.5763 0 17.5847 0 23.7629C0 29.9411 5.00842 34.9496 11.1866 34.9496C12.7319 34.9496 13.9846 33.6969 13.9846 32.1516C13.9846 30.6063 12.7319 29.3536 11.1866 29.3536C8.09898 29.3536 5.59595 26.8506 5.59595 23.7629Z" fill="url(#paint0_linear_621_38)"/>
<defs>
<linearGradient id="paint0_linear_621_38" x1="25.5" y1="-6.21911" x2="-8.81059" y2="27.4827" gradientUnits="userSpaceOnUse">
<stop stop-color="#25A3FF"/>
<stop offset="0.512584" stop-color="#C700FF"/>
<stop offset="1" stop-color="#FFA800"/>
</linearGradient>
</defs>
</svg>
