<svg width="110" height="28" viewBox="0 0 110 28" fill="none" xmlns="http://www.w3.org/2000/svg">
<path d="M93.1434 3.67093C93.144 3.55192 93.1129 3.43489 93.0533 3.3319L88.6442 5.81955V10.454C88.6376 10.5035 88.6447 10.5539 88.6649 10.5996C88.6852 10.6453 88.7176 10.6844 88.7587 10.7128C88.8033 10.7361 88.8532 10.7472 88.9035 10.7448C88.9537 10.7424 89.0024 10.7267 89.0446 10.6993L92.7963 8.5849C92.9044 8.52709 92.9943 8.44026 93.0558 8.33418C93.1173 8.22809 93.1479 8.10697 93.1443 7.98441L93.1434 3.67093Z" fill="url(#paint0_linear_3285_4312)"/>
<path d="M88.6397 0.874024C88.7886 0.873955 88.9354 0.908196 89.0689 0.9741L92.7828 3.07314C92.894 3.13433 92.9872 3.22353 93.0533 3.3319L88.6442 5.81955L84.6355 3.55913C84.5771 3.53371 84.5265 3.49329 84.4888 3.44198C84.4511 3.39067 84.4277 3.33029 84.4209 3.26699C84.4244 3.2076 84.445 3.15049 84.4802 3.10251C84.5154 3.05453 84.5637 3.01772 84.6193 2.99649L88.1853 0.984913C88.327 0.915607 88.482 0.877787 88.6397 0.874024Z" fill="url(#paint1_linear_3285_4312)"/>
<path d="M7.51399 7.30367C8.45462 7.29294 9.38979 7.44799 10.2766 7.7617C11.0881 8.04867 11.8273 8.50878 12.4431 9.11009C13.0589 9.71139 13.5365 10.4395 13.8426 11.2439C14.1956 12.1605 14.3701 13.1362 14.3566 14.1183C14.3598 14.3913 14.3451 14.6642 14.3124 14.9352C14.2939 15.1117 14.2389 15.2824 14.151 15.4365C14.0787 15.5566 13.9668 15.6478 13.8345 15.6944C13.6687 15.7482 13.4948 15.7726 13.3206 15.7665H4.55118C4.59338 16.7797 5.00597 17.7422 5.71069 18.4715C6.38232 19.0467 7.2472 19.3458 8.13072 19.3082C8.5946 19.3186 9.05718 19.2553 9.50121 19.1206C9.85411 19.0094 10.1978 18.8707 10.5291 18.7059C10.8296 18.5538 11.1037 18.4153 11.3514 18.2902C11.5943 18.1664 11.8632 18.1021 12.1358 18.1027C12.2943 18.093 12.4526 18.1233 12.5962 18.1907C12.7399 18.2581 12.8643 18.3606 12.9581 18.4886L14.2791 20.0818C13.839 20.5819 13.327 21.0138 12.7598 21.363C12.2344 21.6862 11.6727 21.9462 11.0863 22.1376C10.529 22.3214 9.95529 22.4515 9.37318 22.5262C8.83069 22.5953 8.28447 22.6312 7.7376 22.6335C6.71512 22.6427 5.69893 22.4727 4.73511 22.1313C3.82166 21.8068 2.98669 21.2937 2.28444 20.6255C1.56096 19.921 0.995719 19.0705 0.626302 18.1306C0.192421 17.02 -0.0198523 15.8352 0.00145947 14.6431C-0.00636626 13.6755 0.167981 12.715 0.515398 11.8119C0.857955 10.9287 1.37782 10.125 2.04293 9.45045C2.70803 8.77588 3.50428 8.24473 4.38257 7.88973C5.3762 7.4853 6.44135 7.28596 7.51399 7.30367ZM7.60416 10.3693C7.23321 10.3467 6.86152 10.399 6.51116 10.5229C6.1608 10.6468 5.83891 10.8398 5.56462 11.0906C5.03173 11.6679 4.69281 12.3974 4.59535 13.177H10.2757C10.2754 12.8274 10.2274 12.4795 10.1333 12.1428C10.0441 11.8162 9.88912 11.5112 9.67793 11.2466C9.45407 10.9732 9.17022 10.7551 8.84842 10.6091C8.45578 10.4385 8.03025 10.3569 7.60235 10.3702L7.60416 10.3693Z" fill="#1A2A36"/>
<path d="M40.8317 10.7876C40.7385 10.9441 40.6101 11.0766 40.4566 11.1744C40.2988 11.2585 40.1212 11.2984 39.9426 11.2899C39.7205 11.2887 39.501 11.2427 39.2971 11.1546L38.6046 10.8598C38.329 10.7458 38.0473 10.6473 37.7607 10.5649C37.4114 10.47 37.0505 10.4245 36.6886 10.4297C36.2237 10.4002 35.7608 10.5128 35.3614 10.7525C35.2141 10.8496 35.0942 10.983 35.0132 11.1398C34.9322 11.2965 34.8928 11.4715 34.8988 11.6478C34.8958 11.7774 34.9212 11.9061 34.973 12.0249C35.0249 12.1437 35.102 12.2498 35.1991 12.3358C35.4356 12.5407 35.7055 12.7035 35.997 12.8172C36.3658 12.9693 36.7427 13.1012 37.1259 13.2122C37.5467 13.3354 37.977 13.4743 38.4171 13.6287C38.8587 13.7825 39.2905 13.9631 39.71 14.1697C40.1175 14.3688 40.4951 14.6241 40.8317 14.928C41.1692 15.2364 41.4412 15.6096 41.6314 16.0253C41.8448 16.5128 41.9476 17.0415 41.9326 17.5734C41.94 18.2737 41.7999 18.9677 41.5214 19.6103C41.2451 20.2343 40.8256 20.7844 40.297 21.2161C39.7015 21.6926 39.0184 22.048 38.2863 22.262C37.3928 22.5247 36.4647 22.6505 35.5336 22.6353C35.0112 22.6346 34.49 22.5863 33.9764 22.491C33.4667 22.3977 32.9642 22.2688 32.4725 22.1051C32.011 21.9502 31.5639 21.7553 31.1363 21.5226C30.7586 21.3217 30.4042 21.0798 30.0795 20.8013L31.1363 19.1657C31.2543 18.9845 31.4099 18.8308 31.5925 18.7149C31.8011 18.5969 32.0382 18.5389 32.2777 18.5472C32.5249 18.5426 32.7692 18.6003 32.9882 18.7149L33.6735 19.0882C33.948 19.2365 34.2345 19.3614 34.53 19.4615C34.9311 19.586 35.3501 19.6426 35.7698 19.6292C36.0718 19.6356 36.3732 19.5995 36.6651 19.5219C36.8791 19.4646 37.0792 19.3643 37.253 19.2271C37.3904 19.1143 37.5004 18.9718 37.5749 18.8105C37.6424 18.6624 37.6775 18.5017 37.6777 18.3389C37.6817 18.2021 37.6562 18.066 37.603 17.9398C37.5498 17.8136 37.4701 17.7004 37.3693 17.6077C37.1326 17.3937 36.8597 17.2237 36.5633 17.1055C36.192 16.9543 35.812 16.8254 35.4254 16.7196C34.9986 16.5994 34.5652 16.4632 34.1252 16.3111C33.6809 16.1553 33.2471 15.9707 32.8268 15.7584C32.4074 15.5467 32.0237 15.2704 31.6899 14.9397C31.344 14.5917 31.0685 14.1802 30.8784 13.7279C30.4477 12.5849 30.4716 11.3203 30.9451 10.1944C31.2008 9.6139 31.585 9.09906 32.0686 8.6886C32.6238 8.22745 33.264 7.87947 33.953 7.66433C34.8069 7.39538 35.6988 7.26717 36.5939 7.28473C37.1282 7.28316 37.6615 7.33054 38.1871 7.42629C38.68 7.52496 39.1629 7.66832 39.6298 7.85458C40.0597 8.01755 40.4728 8.22199 40.8632 8.46499C41.2198 8.68494 41.5522 8.94183 41.855 9.2314L40.8317 10.7876Z" fill="#1A2A36"/>
<path d="M50.7597 26.2599C50.653 26.5169 50.4811 26.7415 50.2611 26.9118C49.975 27.0724 49.6478 27.1448 49.3207 27.1201H46.5337C46.4681 27.1213 46.4033 27.1058 46.3454 27.075C46.2875 27.0442 46.2384 26.9991 46.2028 26.944C46.1673 26.8889 46.1463 26.8257 46.1421 26.7602C46.1378 26.6948 46.1503 26.6293 46.1784 26.5701L48.8464 21.0962L42.6467 7.24235H46.668C46.9601 7.22487 47.2497 7.30583 47.4903 7.47227C47.6734 7.61147 47.8141 7.79875 47.897 8.01325L50.5199 14.7215C50.7499 15.3023 50.9409 15.8978 51.0915 16.5041C51.1889 16.1984 51.2971 15.8982 51.4152 15.6024C51.5333 15.3067 51.6451 15.0055 51.7578 14.7008L54.1463 8.01596C54.2343 7.78515 54.3971 7.59054 54.6088 7.46326C54.8285 7.32212 55.0844 7.24758 55.3455 7.24866H59.0143L50.7597 26.2599Z" fill="#1A2A36"/>
<path d="M69.532 10.7876C69.4389 10.9441 69.3104 11.0766 69.1569 11.1744C69.0018 11.257 68.8276 11.2968 68.652 11.2898C68.4299 11.2886 68.2103 11.2426 68.0064 11.1546L67.3094 10.8598C67.0334 10.7462 66.7514 10.6478 66.4646 10.5649C66.1153 10.47 65.7544 10.4245 65.3925 10.4297C64.9276 10.4003 64.4648 10.5129 64.0653 10.7525C63.9179 10.8495 63.7979 10.9828 63.7169 11.1396C63.6359 11.2964 63.5966 11.4714 63.6028 11.6478C63.5993 11.7774 63.6242 11.9062 63.676 12.0251C63.7277 12.1439 63.8049 12.25 63.9021 12.3358C64.1397 12.5411 64.4108 12.704 64.7037 12.8172C65.0725 12.9694 65.4493 13.1013 65.8325 13.2122C66.2536 13.3357 66.6891 13.4745 67.1255 13.6287C67.5662 13.7826 67.9971 13.9632 68.4158 14.1697C68.8267 14.3689 69.2076 14.6247 69.5473 14.9298C69.8843 15.2383 70.1556 15.6115 70.3453 16.0271C70.5576 16.515 70.6603 17.0434 70.6464 17.5752C70.654 18.2752 70.5139 18.969 70.2353 19.6112C69.959 20.2355 69.5396 20.7859 69.0108 21.2179C68.4145 21.6942 67.7309 22.0495 66.9984 22.2638C66.1055 22.5264 65.178 22.6523 64.2475 22.6371C63.7254 22.6363 63.2045 22.588 62.6912 22.4928C62.1814 22.3994 61.6788 22.2701 61.1872 22.106C60.7243 21.9511 60.276 21.7556 59.8474 21.5218C59.47 21.3205 59.1156 21.0786 58.7907 20.8004L59.8474 19.163C59.9657 18.982 60.1212 18.8283 60.3036 18.7122C60.5118 18.594 60.7487 18.5359 60.988 18.5445C61.2355 18.5394 61.4802 18.5971 61.6994 18.7122L62.3846 19.0855C62.6591 19.2338 62.9457 19.3587 63.2412 19.4588C63.6422 19.5835 64.0613 19.6402 64.481 19.6265C64.783 19.6331 65.0844 19.597 65.3763 19.5192C65.59 19.4626 65.7896 19.3622 65.9624 19.2243C66.0955 19.1184 66.2032 18.9842 66.2778 18.8313C66.3524 18.6784 66.3918 18.5108 66.3934 18.3407C66.3973 18.2039 66.3719 18.0678 66.3187 17.9416C66.2655 17.8154 66.1858 17.7022 66.085 17.6095C65.8479 17.3958 65.5747 17.226 65.278 17.1082C64.9073 16.956 64.5276 16.8268 64.141 16.7214C63.7146 16.6015 63.2845 16.4653 62.8409 16.3129C62.3965 16.1574 61.9628 15.9731 61.5425 15.7611C61.1211 15.5539 60.735 15.2816 60.3983 14.9542C60.0513 14.6071 59.7756 14.1954 59.5868 13.7423C59.1559 12.5994 59.1798 11.3347 59.6536 10.2088C59.9082 9.62767 60.2925 9.11259 60.777 8.70303C61.3321 8.24164 61.9724 7.89365 62.6614 7.67876C63.5161 7.41037 64.4086 7.28217 65.3042 7.29916C65.8379 7.29765 66.3706 7.34534 66.8956 7.44163C67.3892 7.53091 67.8736 7.66521 68.3427 7.84285C68.7733 8.01075 69.1864 8.22033 69.5762 8.4686C69.9296 8.68873 70.2587 8.94563 70.5581 9.235L69.532 10.7876Z" fill="#1A2A36"/>
<path d="M72.5056 22.0429V1.15443C72.506 1.12554 72.512 1.09699 72.5234 1.07044C72.5348 1.04388 72.5513 1.01983 72.572 0.999652C72.5927 0.979473 72.6171 0.96356 72.644 0.952833C72.6708 0.942106 72.6995 0.936764 72.7284 0.937121H75.1943C75.682 0.931586 76.152 1.1198 76.5011 1.46042C76.8502 1.80105 77.0498 2.26625 77.0563 2.75394V8.83826C77.5952 8.38367 78.1968 8.00896 78.8424 7.72563C79.5702 7.42779 80.3519 7.2841 81.138 7.30366C81.8957 7.28927 82.648 7.43299 83.3471 7.72563C83.9678 7.99207 84.5219 8.39232 84.97 8.89778C85.4215 9.42056 85.7612 10.0303 85.9681 10.6893C86.2001 11.4196 86.3157 12.1818 86.3108 12.948V22.0546C86.3084 22.2119 86.2437 22.3618 86.131 22.4715C86.0183 22.5812 85.8667 22.6417 85.7094 22.6398H82.3552C82.2775 22.6407 82.2002 22.6264 82.128 22.5975C82.0557 22.5686 81.9899 22.5257 81.9342 22.4714C81.8786 22.417 81.8341 22.3523 81.8035 22.2808C81.7729 22.2093 81.7566 22.1324 81.7556 22.0546V12.9489C81.7924 12.3389 81.6102 11.7359 81.2417 11.2484C81.0525 11.0388 80.8179 10.8753 80.5559 10.7702C80.2938 10.6652 80.0112 10.6215 79.7296 10.6425C79.2446 10.6418 78.7656 10.7505 78.3285 10.9607C77.8671 11.1836 77.4397 11.4708 77.059 11.8137V22.0555C77.0566 22.2128 76.9919 22.3627 76.8792 22.4724C76.7665 22.5821 76.6148 22.6426 76.4576 22.6407H73.107C72.9467 22.6419 72.7924 22.5797 72.6779 22.4676C72.6217 22.4123 72.5775 22.3461 72.5479 22.273C72.5183 22.2 72.5039 22.1217 72.5056 22.0429Z" fill="#1A2A36"/>
<path d="M95.4697 26.5385V7.24326H98.2873C98.5378 7.23433 98.7854 7.29889 98.9996 7.429C99.196 7.56188 99.3391 7.75989 99.4036 7.98803L99.7462 9.36844C100.037 9.05587 100.353 8.76816 100.692 8.50827C101.381 7.97541 102.178 7.59745 103.026 7.40015C103.505 7.29217 103.995 7.23954 104.486 7.24326C105.251 7.23667 106.007 7.41385 106.689 7.7599C107.378 8.11672 107.975 8.62694 108.435 9.25122C108.958 9.97514 109.346 10.7869 109.581 11.6478C109.874 12.6904 110.014 13.7696 109.999 14.8523C110.009 15.9036 109.848 16.9496 109.523 17.9494C109.231 18.8461 108.778 19.6821 108.187 20.4163C107.627 21.1032 106.926 21.6609 106.131 22.051C105.306 22.4489 104.399 22.6498 103.484 22.638C102.803 22.6556 102.124 22.542 101.486 22.3035C100.954 22.0863 100.459 21.786 100.02 21.4136V26.5403C100.019 26.6181 100.003 26.695 99.9725 26.7665C99.9418 26.838 99.8974 26.9028 99.8417 26.9571C99.786 27.0114 99.7202 27.0543 99.648 27.0832C99.5757 27.1121 99.4985 27.1265 99.4207 27.1255H96.0756C95.9161 27.1277 95.7622 27.0667 95.6473 26.956C95.591 26.9021 95.5461 26.8373 95.5156 26.7655C95.4851 26.6937 95.4694 26.6165 95.4697 26.5385ZM102.897 10.6416C102.594 10.6375 102.291 10.6677 101.995 10.7317C101.736 10.7902 101.484 10.8789 101.246 10.9959C101.013 11.112 100.798 11.2594 100.606 11.4341C100.397 11.6249 100.2 11.8288 100.016 12.0445V18.3561C100.319 18.7024 100.701 18.9705 101.129 19.1378C101.533 19.2868 101.961 19.3622 102.392 19.3605C102.791 19.3653 103.186 19.2819 103.549 19.1162C103.918 18.9417 104.235 18.6733 104.467 18.338C104.755 17.914 104.962 17.4401 105.077 16.9405C105.235 16.2541 105.308 15.551 105.296 14.8469C105.309 14.1814 105.252 13.5165 105.125 12.8632C105.039 12.4048 104.874 11.9648 104.638 11.5631C104.457 11.2608 104.195 11.0151 103.882 10.8535C103.574 10.7076 103.237 10.6351 102.897 10.6416Z" fill="#1A2A36"/>
<path d="M28.7036 13.1103C28.7112 12.3103 28.5718 11.5157 28.2924 10.766C28.0328 10.063 27.6245 9.42431 27.0954 8.89354C26.5664 8.36277 25.929 7.95241 25.2269 7.69048C24.433 7.38878 23.5892 7.24009 22.7401 7.25227C21.5172 7.24369 20.3015 7.43995 19.1434 7.83293C18.1512 8.17618 17.2243 8.68533 16.4024 9.33868C16.315 9.40736 16.2554 9.5054 16.2346 9.61464C16.2139 9.72389 16.2335 9.83695 16.2897 9.93288L16.9146 10.9887C17.0409 11.2098 17.2165 11.399 17.4276 11.5414C17.6648 11.6932 17.9422 11.7702 18.2238 11.7623C18.5354 11.771 18.8454 11.7138 19.1335 11.5946C19.3872 11.4828 19.6487 11.3536 19.918 11.2069C20.2128 11.0499 20.5198 10.9166 20.8358 10.8084C21.2667 10.6831 21.7146 10.6265 22.163 10.6407C22.4502 10.6228 22.7379 10.6658 23.0074 10.7668C23.2768 10.8678 23.5218 11.0245 23.7265 11.2267C24.1432 11.7695 24.3396 12.4496 24.2765 13.131V13.7667C22.8159 13.7347 21.3572 13.8898 19.936 14.2283C18.97 14.4599 18.0479 14.8466 17.2058 15.3734C16.6075 15.7467 16.117 16.2698 15.783 16.8909C15.5222 17.3928 15.3815 17.9483 15.3718 18.5139C15.3599 19.1219 15.4699 19.7262 15.6955 20.291C15.8975 20.7848 16.211 21.2252 16.6116 21.5777C17.0324 21.937 17.5239 22.2042 18.0542 22.3621C18.6681 22.5476 19.3065 22.6388 19.9477 22.6326C20.4227 22.6368 20.8969 22.596 21.3642 22.5109C21.7768 22.4324 22.1791 22.3072 22.5634 22.1376C22.9459 21.9682 23.3123 21.7645 23.658 21.529C23.8536 21.3964 24.0556 21.2494 24.2594 21.0917V22.4676H26.8291C27.3166 22.4731 27.7864 22.2849 28.1352 21.9442C28.484 21.6035 28.6832 21.1383 28.6892 20.6508L28.7036 13.1103ZM22.9331 19.3903C22.4471 19.6005 21.9215 19.7032 21.3921 19.6914C20.9535 19.7206 20.5168 19.6115 20.1434 19.3794C19.9904 19.2478 19.8718 19.0809 19.7978 18.8932C19.7238 18.7055 19.6967 18.5026 19.7187 18.302C19.7174 18.048 19.7857 17.7986 19.9162 17.5806C20.0943 17.3211 20.3408 17.1161 20.6284 16.9883C21.0718 16.7822 21.5405 16.6357 22.0224 16.5528C22.7642 16.4273 23.5162 16.3712 24.2684 16.3851V18.4219C23.8837 18.8207 23.4317 19.1486 22.9331 19.3903Z" fill="#1A2A36"/>
<path d="M89.2195 22.3026L92.7503 20.3108C92.8691 20.2446 92.968 20.148 93.0371 20.0309C93.1062 19.9138 93.1429 19.7805 93.1434 19.6445V11.7713C93.1419 11.703 93.1226 11.6362 93.0875 11.5775C93.0523 11.5188 93.0025 11.4703 92.9429 11.4368C92.8833 11.4032 92.816 11.3857 92.7477 11.386C92.6793 11.3864 92.6121 11.4045 92.5529 11.4386L89.0364 13.4222C88.9179 13.4882 88.8191 13.5846 88.75 13.7013C88.6809 13.8181 88.6441 13.9511 88.6433 14.0868L88.6325 21.9672C88.6339 22.0352 88.6529 22.1018 88.6877 22.1603C88.7225 22.2189 88.7718 22.2674 88.831 22.3012C88.8901 22.335 88.9569 22.3529 89.025 22.3531C89.0931 22.3533 89.1601 22.3359 89.2195 22.3026Z" fill="#1A2A36"/>
<defs>
<linearGradient id="paint0_linear_3285_4312" x1="41.58" y1="16.0737" x2="57.8832" y2="-27.8932" gradientUnits="userSpaceOnUse">
<stop stop-color="#8ED3DA"/>
<stop offset="1" stop-color="#56C4C8"/>
</linearGradient>
<linearGradient id="paint1_linear_3285_4312" x1="632.72" y1="1371.86" x2="632.599" y2="1376.19" gradientUnits="userSpaceOnUse">
<stop stop-color="#8ED3DA"/>
<stop offset="1" stop-color="#56C4C8"/>
</linearGradient>
</defs>
</svg>
