<svg xmlns="http://www.w3.org/2000/svg" xmlns:xlink="http://www.w3.org/1999/xlink" width="215.597" height="56" viewBox="0 0 215.597 56">
  <defs>
    <linearGradient id="linear-gradient" y1="0.5" x2="1" y2="0.5" gradientUnits="objectBoundingBox">
      <stop offset="0" stop-color="#37b578"/>
      <stop offset="1" stop-color="#00ca90"/>
    </linearGradient>
    <linearGradient id="linear-gradient-2" x1="0.5" y1="1" x2="0.5" y2="0" xlink:href="#linear-gradient"/>
  </defs>
  <g id="Group_93301" data-name="Group 93301" transform="translate(-272.276 -191.087)">
    <g id="Group_93297" data-name="Group 93297" transform="translate(322.976 207.534)">
      <path id="Path_196" data-name="Path 196" d="M394.7,230.132V226H378.95V251.51h5.114V240.731h8.151v-4.059h-8.151v-6.54Z" transform="translate(-378.95 -225.855)" fill="#002c3f"/>
      <path id="Path_197" data-name="Path 197" d="M417.524,230.827a3,3,0,0,1,0-4.277,3.372,3.372,0,0,1,4.5,0,3,3,0,0,1,0,4.277,3.371,3.371,0,0,1-4.5,0Z" transform="translate(-398.721 -225.692)" fill="#002c3f"/>
      <rect id="Rectangle_5921" data-name="Rectangle 5921" width="5.117" height="16.976" transform="translate(18.456 8.681)" fill="#002c3f"/>
      <path id="Path_198" data-name="Path 198" d="M437.24,226V251.51h5.114V226Z" transform="translate(-409.536 -225.855)" fill="#002c3f"/>
      <path id="Path_199" data-name="Path 199" d="M474.067,246.4a10.688,10.688,0,0,0-1.264-5.247,8.736,8.736,0,0,0-3.546-3.527,11.51,11.51,0,0,0-10.47.038,8.929,8.929,0,0,0-3.579,3.655,11.426,11.426,0,0,0-1.278,5.518,11.258,11.258,0,0,0,1.3,5.485,9.1,9.1,0,0,0,3.617,3.674,10.548,10.548,0,0,0,5.242,1.3,9.827,9.827,0,0,0,6.107-1.882,9.245,9.245,0,0,0,3.36-4.81h-5.518a4.175,4.175,0,0,1-4.059,2.448,4.742,4.742,0,0,1-3.327-1.24,5.026,5.026,0,0,1-1.53-3.436h14.8A12.314,12.314,0,0,0,474.067,246.4Zm-14.914-1.464a5.072,5.072,0,0,1,1.592-3.2,4.653,4.653,0,0,1,3.2-1.15,5.073,5.073,0,0,1,3.4,1.188,4.068,4.068,0,0,1,1.426,3.161Z" transform="translate(-418.294 -231.301)" fill="#002c3f"/>
      <path id="Path_200" data-name="Path 200" d="M517.971,230.132V226H502.22V251.51h5.114V240.731h8.151v-4.059h-8.151v-6.54Z" transform="translate(-443.633 -225.855)" fill="#002c3f"/>
      <path id="Path_201" data-name="Path 201" d="M592.715,237.375a7.183,7.183,0,0,0-2.576,2.519v-3.142H585.02V257h5.119V246.913c0-1.877.4-3.194,1.221-3.95A5.211,5.211,0,0,1,595,241.833h1.35v-5.371A7.172,7.172,0,0,0,592.715,237.375Z" transform="translate(-487.08 -231.343)" fill="#002c3f"/>
      <path id="Path_202" data-name="Path 202" d="M645.319,238.743a8.776,8.776,0,0,0-10.085-1.221,7.334,7.334,0,0,0-2.871,2.814,7.052,7.052,0,0,0-2.885-2.871,8.8,8.8,0,0,0-4.239-1,7.937,7.937,0,0,0-3.417.727,6.88,6.88,0,0,0-2.543,2.01v-2.448H614.16V257h5.119V245.815a5.008,5.008,0,0,1,1.226-3.636,4.432,4.432,0,0,1,3.341-1.26,4.326,4.326,0,0,1,3.289,1.26,5.042,5.042,0,0,1,1.207,3.636V257h5.119V245.815a5.027,5.027,0,0,1,1.221-3.636,4.4,4.4,0,0,1,3.308-1.26,4.344,4.344,0,0,1,3.294,1.26,5.062,5.062,0,0,1,1.2,3.636V257h5.119V245.122A8.617,8.617,0,0,0,645.319,238.743Z" transform="translate(-502.37 -231.343)" fill="#002c3f"/>
      <path id="Path_203" data-name="Path 203" d="M706.262,247.95a6.377,6.377,0,0,0-2.467-1.811,27.231,27.231,0,0,0-3.617-1.131,15.9,15.9,0,0,1-3.18-1.079,1.672,1.672,0,0,1-1.026-1.554,1.637,1.637,0,0,1,.751-1.426,4.529,4.529,0,0,1,4.534.2,2.657,2.657,0,0,1,1,1.92h4.9a6.708,6.708,0,0,0-2.377-4.876,8.7,8.7,0,0,0-5.775-1.811,10.4,10.4,0,0,0-4.259.8,6.542,6.542,0,0,0-2.78,2.191,5.285,5.285,0,0,0-.965,3.07,4.808,4.808,0,0,0,1.041,3.256,6.43,6.43,0,0,0,2.486,1.792,27.019,27.019,0,0,0,3.707,1.131,18.928,18.928,0,0,1,3.2,1.079,1.581,1.581,0,0,1,1.008,1.478,1.774,1.774,0,0,1-.822,1.5,3.9,3.9,0,0,1-2.286.585,4,4,0,0,1-2.5-.77,2.785,2.785,0,0,1-1.15-1.934H690.53a6.174,6.174,0,0,0,1.259,3.4,7.867,7.867,0,0,0,3.123,2.429,10.662,10.662,0,0,0,4.463.9,10.546,10.546,0,0,0,4.221-.789,6.352,6.352,0,0,0,2.776-2.172,5.373,5.373,0,0,0,.969-3.146A4.961,4.961,0,0,0,706.262,247.95Z" transform="translate(-542.443 -231.301)" fill="#002c3f"/>
      <path id="Path_204" data-name="Path 204" d="M556.026,246.833a10.531,10.531,0,0,1-1.412,5.485,9.759,9.759,0,0,1-3.8,3.674,11.067,11.067,0,0,1-5.356,1.3,10.659,10.659,0,0,1-5.261-1.3,9.354,9.354,0,0,1-3.674-3.674,11.017,11.017,0,0,1-1.336-5.485,10.736,10.736,0,0,1,1.374-5.48,9.5,9.5,0,0,1,3.745-3.674,11.471,11.471,0,0,1,10.6,0,9.4,9.4,0,0,1,1.706,1.183,22.3,22.3,0,0,0-2.443,1.849,40.45,40.45,0,0,0-5.5,5.832l-3.256-2.272a.324.324,0,0,0-.414.033l-.993.984a.326.326,0,0,0-.033.423c.033.048,3.27,4.453,4.487,6.521a.322.322,0,0,0,.561,0c.014-.019,1.264-2.215,3.07-4.891a51.072,51.072,0,0,1,5.732-7.205,10.578,10.578,0,0,1,.827,1.221A10.784,10.784,0,0,1,556.026,246.833Z" transform="translate(-460.933 -231.301)" fill="url(#linear-gradient)"/>
    </g>
    <g id="Group_93300" data-name="Group 93300" transform="translate(272.276 191.087)">
      <path id="Path_205" data-name="Path 205" d="M312.184,256.846a4.614,4.614,0,0,1,.134.544,3.878,3.878,0,0,0-.3-.333,4.193,4.193,0,0,0-2.993-1.209H275.155a2.693,2.693,0,0,1-2.879-2.457V213.178a2.693,2.693,0,0,1,2.879-2.457h.49V249.1a4.446,4.446,0,0,0,4.538,4.331h27.694a4.643,4.643,0,0,1,2.709.961A4.732,4.732,0,0,1,312.184,256.846Z" transform="translate(-272.276 -201.389)" fill="#002c3f"/>
      <path id="Path_206" data-name="Path 206" d="M304.626,204.154a8.614,8.614,0,0,1,.082-1.193h-19.23a2.541,2.541,0,0,0-2.7,2.35v39.723a2.817,2.817,0,0,0,2.915,2.705h27.693a5.724,5.724,0,0,1,3.772,1.362,4.345,4.345,0,0,1,1.557,3.143l0,0v-40.52a9.085,9.085,0,0,1-14.1-7.574Zm7.342,28.536a1.259,1.259,0,0,1-1.261,1.261H290.8a1.258,1.258,0,0,1-1.257-1.261v-.041a1.257,1.257,0,0,1,1.257-1.257h19.909a1.258,1.258,0,0,1,1.261,1.257Zm0-7.32a1.262,1.262,0,0,1-1.261,1.262H290.8a1.261,1.261,0,0,1-1.257-1.262v-.041a1.257,1.257,0,0,1,1.257-1.257h19.909a1.257,1.257,0,0,1,1.261,1.257Zm0-7.32a1.261,1.261,0,0,1-1.261,1.262H290.8a1.261,1.261,0,0,1-1.257-1.262v-.046a1.26,1.26,0,0,1,1.257-1.257h19.909a1.261,1.261,0,0,1,1.261,1.257Z" transform="translate(-277.788 -197.318)" fill="url(#linear-gradient-2)"/>
      <g id="Group_93299" data-name="Group 93299" transform="translate(29.087)">
        <g id="Group_93298" data-name="Group 93298">
          <path id="Path_207" data-name="Path 207" d="M346.275,194.595a6.829,6.829,0,0,0-9.7-2.4,6.944,6.944,0,0,0-2.232,2.4,6.608,6.608,0,0,0-.76,2.136,6.832,6.832,0,1,0,13.56,1.193A6.739,6.739,0,0,0,346.275,194.595Zm-6.513,5.862a.673.673,0,0,1-.943.018l-2.246-2.041-.068-.064a.7.7,0,0,1-.05-.961.414.414,0,0,1,.118-.1.668.668,0,0,1,.838.064l1.836,1.681,2.318-2.323,1.585-1.585a.691.691,0,0,1,.975.98l-.765.756Z" transform="translate(-333.476 -191.087)" fill="#002c3f"/>
        </g>
      </g>
    </g>
  </g>
</svg>
